<svg version="1.1" xmlns="http://www.w3.org/2000/svg" x="0" y="0" viewBox="0 0 1280 1024" style="enable-background:new 0 0 1280 1024" xml:space="preserve"><style>.st1{fill:#ffffffcc}.st2{fill:#ffffff66}.st3{fill:#ffffff99}.st4{fill:#ffffff33}</style><path class="st2" d="M320 752v80h80c-44.2 0-80-35.8-80-80z"/><path class="st1" d="M320 912v-80h-80c-44.2 0-80 35.8-80 80s35.8 80 80 80 80-35.8 80-80zM80 192c-44.2 0-80-35.8-80-80v160c0 44.2 35.8 80 80 80s80-35.8 80-80-35.8-80-80-80zM240 832h80v-80c0 44.2-35.8 80-80 80zM240 672H80c-44.2 0-80 35.8-80 80v80h80c44.2 0 80-35.8 80-80s35.8-80 80-80zM560 672c-44.2 0-80 35.8-80 80s35.8 80 80 80h-80v80h80c44.2 0 80-35.8 80-80v-80c0-44.2-35.8-80-80-80z"/><path class="st2" d="M160 912c0-44.2 35.8-80 80-80h-80v80zM720 832h-80v80h80c14.6 0 28.2-3.9 40-10.7-23.9-13.9-40-39.7-40-69.3z"/><path class="st3" d="M1200 512h80v-80c-44.2 0-80 35.8-80 80zM1120 592c-44.2 0-80 35.8-80 80h-80v80c-44.2 0-80 35.8-80 80h80c0-29.6 16.1-55.4 40-69.3 11.8-6.8 25.4-10.7 40-10.7h80c44.2 0 80-35.8 80-80h80c-44.2 0-80-35.8-80-80v-80h-80v80zM80 832h80v-80c0 44.2-35.8 80-80 80zM560 912h-80v80h160V832c0 44.2-35.8 80-80 80zM800 752c-29.6 0-55.4 16.1-69.3 40-6.8 11.8-10.7 25.4-10.7 40 0 29.6 16.1 55.4 40 69.3 11.8 6.8 25.4 10.7 40 10.7 44.2 0 80-35.8 80-80s-35.8-80-80-80z"/><path class="st2" d="M80 432v80c-44.2 0-80 35.8-80 80v160c0-44.2 35.8-80 80-80s80-35.8 80-80v-80c-44.2 0-80-35.8-80-80zM1200 592c0 44.2 35.8 80 80 80V512h-80v80zM960 672h-80c0 44.2-35.8 80-80 80 44.2 0 80 35.8 80 80 0-44.2 35.8-80 80-80v-80zM1040 912v-80c0-44.2 35.8-80 80-80h-80c-14.6 0-28.2 3.9-40 10.7-23.9 13.8-40 39.7-40 69.3v80c-44.2 0-80 35.8-80 80h240c-44.2 0-80-35.8-80-80zM160 912H80c-44.2 0-80 35.8-80 80h240c-44.2 0-80-35.8-80-80zM400 912c0 44.2 35.8 80 80 80V832h-80v80zM1200 832c0 44.2-35.8 80-80 80v80h80c0-44.2 35.8-80 80-80V752c-44.2 0-80 35.8-80 80z"/><path class="st4" d="M80 32C35.8 32 0 67.8 0 112s35.8 80 80 80 80 35.8 80 80V112c0-44.2-35.8-80-80-80zM80 512v-80c0-44.2-35.8-80-80-80v240c0-44.2 35.8-80 80-80zM400 672H240c-44.2 0-80 35.8-80 80v80h80c44.2 0 80-35.8 80-80 0 44.2 35.8 80 80 80h160c-44.2 0-80-35.8-80-80s-35.8-80-80-80zM1200 672c0 44.2-35.8 80-80 80s-80 35.8-80 80v80c0 44.2 35.8 80 80 80v-80c44.2 0 80-35.8 80-80s35.8-80 80-80v-80h-80zM0 832v160c0-44.2 35.8-80 80-80h80v-80H0zM400 912v-80h-80v80c0 44.2-35.8 80-80 80h240c-44.2 0-80-35.8-80-80zM800 912c-14.6 0-28.2-3.9-40-10.7-11.8 6.8-25.4 10.7-40 10.7h-80v80h240c0-44.2 35.8-80 80-80v-80h-80c0 44.2-35.8 80-80 80zM1200 992h80v-80c-44.2 0-80 35.8-80 80z"/></svg>