<svg viewBox="0 0 24 24" xmlns="http://www.w3.org/2000/svg"><path d="m0 0h6v6h-6z" fill="#8ee449"/><path d="m6 0h6v6h-6z" fill="#f0f734"/><path d="m0 6h6v6h-6z" fill="#667fc5"/><path d="m6 6h6v6h-6z" fill="#d3fa4b"/><path d="m0 12h6v6h-6z" fill="#fbf66e"/><path d="m6 12h6v6h-6z" fill="#f8e163"/><path d="m0 18h6v6h-6z" fill="#fb6850"/><path d="m6 18h6v6h-6z" fill="#91d41d"/><path d="m12 0h6v6h-6z" fill="#60e138"/><path d="m18 0h6v6h-6z" fill="#f8cf41"/><path d="m12 6h6v6h-6z" fill="#7288cf"/><path d="m18 6h6v6h-6z" fill="#f6b943"/><path d="m12 12h6v6h-6z" fill="#f7ca18"/><path d="m18 12h6v6h-6z" fill="#fe7b4d"/><path d="m12 18h6v6h-6z" fill="#fa8f39"/><path d="m18 18h6v6h-6z" fill="#dbe04f"/><g stroke="#882599"><path d="m12 19 7-7 3 3-7 7z" fill="none"/><path d="m18 13-1.5-7.5-14.5-3.5 3.5 14.5 7.5 1.5z" fill="none" stroke-linecap="round" stroke-linejoin="round"/><path d="m2 2 7.586 7.586"/><circle cx="11" cy="11" fill="none" r="2"/></g></svg>